<svg xmlns="http://www.w3.org/2000/svg" viewBox="0 0 500.02 498.75"><path fill="#5cf0a3" d="m485.14,170.93c9.91-9.08,14.86-23.12,14.86-42.94V46.66c0-2.89-.41-5.37-.83-8.26-3.3-19.82-19.41-35.09-39.22-37.99-2.06-.41-4.54-.41-6.61-.41h-82.16c-19.82,0-34.27,4.95-42.94,15.28-9.5,9.5-14.04,21.88-13.63,36.75v35.09c-2.06-.41-4.54-.41-7.02-.41-15.69,0-28.08,5.37-37.16,16.1-9.91,11.15-16.1,26.84-18.58,46.66h-3.72c-2.48-19.82-8.67-35.51-18.58-46.66-9.08-10.73-21.47-16.1-37.16-16.1-2.48,0-4.95,0-7.02.41v-35.1c.41-14.86-4.13-27.25-13.63-36.75C163.09,4.95,148.64,0,128.82,0H46.66C44.6,0,42.12,0,40.05.41,20.23,3.3,4.54,18.58.83,38.4c-.41,2.48-.83,5.37-.83,8.26v81.33c0,19.82,4.95,33.86,14.86,42.94,9.91,9.08,21.88,14.04,36.75,14.04h36.33c-.41,2.48-.41,4.95-.41,7.43,0,15.69,5.37,28.08,16.1,37.99,11.15,9.08,26.84,15.28,46.66,17.75v3.72c-20.23,2.48-35.92,8.67-46.66,18.17-10.73,9.08-16.1,21.88-16.1,37.57,0,2.48,0,4.95.41,7.43h-35.92c-14.86,0-27.25,4.54-36.75,14.04-10.32,8.67-15.27,23.12-15.27,42.52v80.92c0,3.3.41,6.19.83,9.08,2.06,9.5,6.61,17.75,13.21,24.36,6.61,6.19,15.28,10.73,25.19,12.39,2.48.41,4.95.41,7.43.41h81.75c19.82,0,33.86-4.95,42.94-14.86,9.08-9.5,14.04-21.88,14.04-36.75v-35.09c2.48,0,4.54.41,7.02.41,15.69,0,28.08-5.37,37.99-16.1,9.08-11.15,15.28-26.84,17.75-46.66h3.72c2.48,19.82,8.67,35.51,17.75,46.66,9.91,10.73,22.3,16.1,37.99,16.1,2.48,0,4.54-.41,7.02-.41v35.09c0,14.86,4.95,27.25,14.04,36.75,9.08,9.91,23.12,14.86,42.94,14.86h81.75c2.48,0,4.95,0,7.43-.41,18.99-3.3,34.27-17.75,38.4-36.75.41-2.89.83-6.19.83-9.08v-80.92c0-19.41-4.95-33.86-15.28-42.53-9.5-9.5-21.88-14.04-36.75-14.04h-35.92c.41-2.48.41-4.95.41-7.43,0-15.69-5.37-28.49-16.1-37.57-10.73-9.5-26.42-15.69-46.66-18.17v-3.72c19.82-2.48,35.51-8.67,46.66-17.75,10.73-9.91,16.1-22.3,16.1-37.99,0-2.48,0-4.95-.41-7.43h36.33c14.86,0,26.84-4.95,36.75-14.04h0ZM121.8,65.24c0,11.15-1.24,20.64-3.72,28.08-3.72,8.26-9.91,15.28-17.34,19.82-7.02,4.54-15.69,7.43-24.77,7.43H29.31V29.31h92.49v35.92h0Zm.41,341.45l-.41,35.92H29.73v-91.66h35.51c14.86,0,26.42,2.06,34.68,6.61.41.41,1.24.41,1.65.83,6.61,4.54,12.39,11.15,15.69,18.58,3.3,6.19,4.95,13.21,4.95,20.23v9.5h0Zm92.49-123.45c0,2.89,0,5.37-.41,8.26,0,1.24,0,2.48-.41,4.13,0,2.48-.41,4.95-.83,7.43,0,1.24-.41,2.06-.41,3.3,0,.83-.41,1.65-.41,2.48-4.54,26.84-16.1,40.05-34.27,40.05-2.89,0-5.78,0-8.67-.83h-.41c-2.89-.41-5.78-1.24-8.67-2.48-5.37-2.48-11.15-6.19-17.75-12.39l-.41-.41c-.83-.83-1.24-1.65-2.06-2.48-6.19-7.43-10.73-13.63-13.21-19.41-2.06-4.95-3.3-10.73-3.3-16.52,0-12.8,6.61-22.3,19.82-28.49h.41c11.56-4.95,28.08-7.84,49.55-7.84h21.47v25.19h-.03Zm0-68.95h-21.06c-46.24,0-69.78-11.97-69.78-36.33,0-5.78,1.24-11.56,3.3-16.52,2.48-5.78,7.02-11.97,13.21-19.41,.83-.83,1.24-1.65,2.06-2.48,7.02-6.19,13.21-10.32,18.58-12.8,5.78-2.48,11.15-3.3,17.34-3.3,23.95,0,36.33,23.12,36.33,69.78v21.06h.02Zm135.84,182.91c0-7.02,1.65-14.04,4.54-20.23,3.72-7.43,9.08-13.63,15.69-18.58,.41-.41,1.24-.83,1.65-.83,8.26-4.54,19.82-6.61,34.68-6.61h35.92v91.66h-92.07l-.41-35.92v-9.5h0Zm-4.95-86.29c-2.48,5.78-7.02,11.97-13.21,19.41-.83.83-1.24,1.65-2.06,2.48l-.41.41c-6.61,5.78-12.8,9.91-17.75,12.39-2.89,1.24-5.78,2.06-8.67,2.48h-.41c-2.89.41-5.37.83-8.67.83-18.17,0-29.73-13.21-34.27-40.05,0-.83-.41-1.65-.41-2.48,0-1.24-.41-2.06-.41-3.3-.41-2.48-.41-4.54-.83-7.43,0-1.24,0-2.48-.41-4.13,0-2.48-.41-5.37-.41-8.26v-25.6h21.06c21.47,0,37.99,2.48,49.55,7.84h.41c13.63,6.61,20.23,15.69,20.23,28.9,0,5.78-1.24,11.56-3.3,16.52h-.03Zm-66.47-96.61h-21.06v-21.06c0-46.66,12.39-69.78,36.33-69.78,6.19,0,11.56.83,17.34,3.3,5.37,2.48,11.56,6.61,18.58,12.8,.83,.83,1.24,1.65,2.06,2.48,6.19,7.43,10.73,13.63,13.21,19.41,2.06,4.95,3.3,10.73,3.3,16.52,0,24.36-23.53,36.33-69.78,36.33h.02Zm163.91-93.72h-45.83c-9.08,0-17.75-2.89-24.77-7.43-7.43-4.95-13.63-11.97-17.34-19.82-2.48-7.43-3.72-16.52-3.72-28.08V29.31h91.66v91.27Z"/></svg>
